<svg width="34" height="24" viewBox="0 0 34 24" fill="none" xmlns="http://www.w3.org/2000/svg">
<rect x="0.25" y="0.25" width="33.1" height="23.5" rx="1.75" fill="white" stroke="#F5F5F5" stroke-width="0.5"/>
<mask id="mask0_6_1200" style="mask-type:luminance" maskUnits="userSpaceOnUse" x="0" y="0" width="34" height="24">
<rect x="0.25" y="0.25" width="33.1" height="23.5" rx="1.75" fill="white" stroke="white" stroke-width="0.5"/>
</mask>
<g mask="url(#mask0_6_1200)">
<path fill-rule="evenodd" clip-rule="evenodd" d="M0 8H33.6V0H0V8Z" fill="#04AAC8"/>
<path fill-rule="evenodd" clip-rule="evenodd" d="M0 24H33.6V16H0V24Z" fill="#23C840"/>
<path fill-rule="evenodd" clip-rule="evenodd" d="M5.59995 6.4C6.09349 6.4 6.55223 6.25103 6.93366 5.9956C6.88947 5.99852 6.84488 6 6.79995 6C5.69538 6 4.79995 5.10457 4.79995 4C4.79995 2.89543 5.69538 2 6.79995 2C6.84488 2 6.88947 2.00148 6.93366 2.0044C6.55223 1.74897 6.09349 1.6 5.59995 1.6C4.27447 1.6 3.19995 2.67452 3.19995 4C3.19995 5.32548 4.27447 6.4 5.59995 6.4ZM9.59995 5.6C9.59995 6.04183 9.24178 6.4 8.79995 6.4C8.35812 6.4 7.99995 6.04183 7.99995 5.6C7.99995 5.15817 8.35812 4.8 8.79995 4.8C9.24178 4.8 9.59995 5.15817 9.59995 5.6ZM12 3.2C12.4418 3.2 12.8 2.84183 12.8 2.4C12.8 1.95817 12.4418 1.6 12 1.6C11.5581 1.6 11.2 1.95817 11.2 2.4C11.2 2.84183 11.5581 3.2 12 3.2ZM16 2.4C16 2.84183 15.6418 3.2 15.2 3.2C14.7581 3.2 14.4 2.84183 14.4 2.4C14.4 1.95817 14.7581 1.6 15.2 1.6C15.6418 1.6 16 1.95817 16 2.4ZM15.2 6.4C15.6418 6.4 16 6.04183 16 5.6C16 5.15817 15.6418 4.8 15.2 4.8C14.7581 4.8 14.4 5.15817 14.4 5.6C14.4 6.04183 14.7581 6.4 15.2 6.4ZM12.8 5.6C12.8 6.04183 12.4418 6.4 12 6.4C11.5581 6.4 11.2 6.04183 11.2 5.6C11.2 5.15817 11.5581 4.8 12 4.8C12.4418 4.8 12.8 5.15817 12.8 5.6Z" fill="white"/>
</g>
</svg>
